<svg width="65" height="26" viewBox="0 0 65 26" fill="none" xmlns="http://www.w3.org/2000/svg">
<path d="M0.812 14V4.396H4.55C7.476 4.396 9.436 6.314 9.436 9.198C9.436 12.082 7.476 14 4.55 14H0.812ZM2.688 12.32H4.55C6.356 12.32 7.56 11.074 7.56 9.198C7.56 7.322 6.356 6.076 4.55 6.076H2.688V12.32ZM10.5835 5.936V4.396H12.2635V5.936H10.5835ZM10.5835 14V7H12.2635V14H10.5835ZM16.9103 14.196C14.7263 14.196 13.2703 12.712 13.2703 10.5C13.2703 8.288 14.7263 6.804 16.9103 6.804C17.7363 6.804 18.6463 7.182 19.1783 7.756V7H20.8583V14H19.1783V13.244C18.6463 13.818 17.7363 14.196 16.9103 14.196ZM17.0783 12.712C18.3383 12.712 19.1783 11.83 19.1783 10.5C19.1783 9.17 18.3383 8.288 17.0783 8.288C15.8043 8.288 14.9503 9.17 14.9503 10.5C14.9503 11.83 15.8043 12.712 17.0783 12.712ZM24.9811 14.196C23.0911 14.196 21.7891 13.16 21.7331 11.62H23.3151C23.3711 12.32 24.0431 12.796 24.9811 12.796C25.9191 12.796 26.5491 12.432 26.5491 11.886C26.5491 11.55 26.1291 11.312 24.8271 11.06C22.7971 10.598 22.1531 10.136 22.1531 8.974C22.1531 7.672 23.2871 6.804 24.9811 6.804C26.3251 6.804 27.5011 7.532 27.9071 8.624L26.3671 9.002C26.1571 8.526 25.5971 8.204 24.9811 8.204C24.2951 8.204 23.8331 8.484 23.8331 8.89C23.8331 9.184 24.1551 9.366 25.1491 9.59C27.4871 10.08 28.2291 10.612 28.2291 11.886C28.2291 13.272 26.9271 14.196 24.9811 14.196Z" fill="black"/>
<path d="M3.096 23.168C1.476 23.168 0.36 22.28 0.312 20.96H1.668C1.716 21.56 2.292 21.968 3.096 21.968C3.9 21.968 4.44 21.656 4.44 21.188C4.44 20.9 4.08 20.696 2.964 20.48C1.224 20.084 0.672 19.688 0.672 18.692C0.672 17.576 1.644 16.832 3.096 16.832C4.248 16.832 5.256 17.456 5.604 18.392L4.284 18.716C4.104 18.308 3.624 18.032 3.096 18.032C2.508 18.032 2.112 18.272 2.112 18.62C2.112 18.872 2.388 19.028 3.24 19.22C5.244 19.64 5.88 20.096 5.88 21.188C5.88 22.376 4.764 23.168 3.096 23.168ZM10.0543 16.832C11.9503 16.832 13.2223 18.104 13.2223 20C13.2223 21.896 11.9503 23.168 10.0543 23.168C9.32231 23.168 8.51831 22.832 8.06231 22.34V25.232H6.62231V17H8.06231V17.66C8.51831 17.168 9.32231 16.832 10.0543 16.832ZM9.91031 18.104C8.80631 18.104 8.06231 18.86 8.06231 20C8.06231 21.14 8.80631 21.896 9.91031 21.896C11.0383 21.896 11.7823 21.14 11.7823 20C11.7823 18.86 11.0383 18.104 9.91031 18.104ZM17.0992 23.168C15.1432 23.168 13.8472 21.896 13.8472 20C13.8472 18.104 15.1432 16.832 17.0992 16.832C19.0552 16.832 20.3512 18.104 20.3512 20C20.3512 21.896 19.0552 23.168 17.0992 23.168ZM17.0992 21.896C18.1912 21.896 18.9112 21.14 18.9112 20C18.9112 18.86 18.1912 18.104 17.0992 18.104C16.0072 18.104 15.2872 18.86 15.2872 20C15.2872 21.14 16.0072 21.896 17.0992 21.896ZM27.191 21.968H28.235V23C28.019 23.096 27.611 23.168 27.215 23.168C26.015 23.168 25.223 22.484 25.223 21.464V18.2H24.263H24.095C23.159 18.2 22.535 18.74 22.535 19.544V23H21.095V17H22.535V17.732C22.799 17.288 23.399 17 24.011 17H24.587H25.223V14.768H26.663V17H28.175V18.2H26.663V21.464C26.663 21.764 26.879 21.968 27.191 21.968ZM31.5491 23.168C29.9291 23.168 28.8131 22.28 28.7651 20.96H30.1211C30.1691 21.56 30.7451 21.968 31.5491 21.968C32.3531 21.968 32.8931 21.656 32.8931 21.188C32.8931 20.9 32.5331 20.696 31.4171 20.48C29.6771 20.084 29.1251 19.688 29.1251 18.692C29.1251 17.576 30.0971 16.832 31.5491 16.832C32.7011 16.832 33.7091 17.456 34.0571 18.392L32.7371 18.716C32.5571 18.308 32.0771 18.032 31.5491 18.032C30.9611 18.032 30.5651 18.272 30.5651 18.62C30.5651 18.872 30.8411 19.028 31.6931 19.22C33.6971 19.64 34.3331 20.096 34.3331 21.188C34.3331 22.376 33.2171 23.168 31.5491 23.168ZM40.2679 23.168C38.6479 23.168 37.5319 22.28 37.4839 20.96H38.8399C38.8879 21.56 39.4639 21.968 40.2679 21.968C41.0719 21.968 41.6119 21.656 41.6119 21.188C41.6119 20.9 41.2519 20.696 40.1359 20.48C38.3959 20.084 37.8439 19.688 37.8439 18.692C37.8439 17.576 38.8159 16.832 40.2679 16.832C41.4199 16.832 42.4279 17.456 42.7759 18.392L41.4559 18.716C41.2759 18.308 40.7959 18.032 40.2679 18.032C39.6799 18.032 39.2839 18.272 39.2839 18.62C39.2839 18.872 39.5599 19.028 40.4119 19.22C42.4159 19.64 43.0519 20.096 43.0519 21.188C43.0519 22.376 41.9359 23.168 40.2679 23.168ZM43.7942 23V14.768H45.2342V17.444C45.6302 17.072 46.2782 16.832 46.8662 16.832C48.5102 16.832 49.6022 17.804 49.6022 19.268V23H48.1622V19.436C48.1622 18.632 47.5742 18.104 46.6982 18.104C45.8222 18.104 45.2342 18.632 45.2342 19.436V23H43.7942ZM53.6031 23.168C51.6471 23.168 50.3511 21.896 50.3511 20C50.3511 18.104 51.6471 16.832 53.6031 16.832C55.5591 16.832 56.8551 18.104 56.8551 20C56.8551 21.896 55.5591 23.168 53.6031 23.168ZM53.6031 21.896C54.6951 21.896 55.4151 21.14 55.4151 20C55.4151 18.86 54.6951 18.104 53.6031 18.104C52.5111 18.104 51.7911 18.86 51.7911 20C51.7911 21.14 52.5111 21.896 53.6031 21.896ZM61.1481 16.832C63.0441 16.832 64.3161 18.104 64.3161 20C64.3161 21.896 63.0441 23.168 61.1481 23.168C60.4161 23.168 59.6121 22.832 59.1561 22.34V25.232H57.7161V17H59.1561V17.66C59.6121 17.168 60.4161 16.832 61.1481 16.832ZM61.0041 18.104C59.9001 18.104 59.1561 18.86 59.1561 20C59.1561 21.14 59.9001 21.896 61.0041 21.896C62.1321 21.896 62.8761 21.14 62.8761 20C62.8761 18.86 62.1321 18.104 61.0041 18.104Z" fill="black"/>
</svg>
